PathFileType	4	(X/Y/Z)	Walk1_0-155.trc
DataRate	CameraRate	NumFrames	NumMarkers	Units	OrigDataRate	OrigDataStartFrame	OrigNumFrames
30	30	5	22	m	30	116	155
Frame#	Time	Hip			RHip			RKnee			RAnkle			RBigToe			RSmallToe			RHeel			LHip			LKnee			LAnkle			LBigToe			LSmallToe			LHeel			Neck			Head			Nose			RShoulder			RElbow			RWrist			LShoulder			LElbow			LWrist		
		X1	Y1	Z1	X2	Y2	Z2	X3	Y3	Z3	X4	Y4	Z4	X5	Y5	Z5	X6	Y6	Z6	X7	Y7	Z7	X8	Y8	Z8	X9	Y9	Z9	X10	Y10	Z10	X11	Y11	Z11	X12	Y12	Z12	X13	Y13	Z13	X14	Y14	Z14	X15	Y15	Z15	X16	Y16	Z16	X17	Y17	Z17	X18	Y18	Z18	X19	Y19	Z19	X20	Y20	Z20	X21	Y21	Z21	X22	Y22	Z22
117	3.9	0.9997679392627165	0.908190123918222	0.38204267104981104	0.9873306193751059	0.8968642680463953	0.5051616086998199	0.9359725990899924	0.520960646265022	0.4798068449105685	0.86125686812239	0.10618669991681766	0.44833526175434013	1.0340036473943344	0.03520775992904666	0.4518846842582354	0.9862152464976396	0.02592486651723809	0.5043594888193125	0.8048832928196011	0.03718772733617491	0.4300086337973308	1.005530454721799	0.8924658195020665	0.2686463183544917	1.201137652877941	0.5630066456002066	0.3010281773753547	1.075516933890553	0.1784886614973801	0.33647059801861506	1.2766588102972358	0.07276415905424606	0.34151330722868006	1.247374717331475	0.07025429761748422	0.27260748007648905	1.0103461422440345	0.10852424452465527	0.334445682408074	0.9274030965307161	1.5771987353643055	0.4124507630765703	0.9823722186211047	1.8522177865262308	0.44388811737519757	1.0871499898513426	1.6778765627367502	0.40526360932317534	0.9322584906437681	1.4584645244506704	0.5872745910047245	1.0325654113476348	1.1843239267315462	0.6612165773589961	1.2058783887490307	0.9746741570095439	0.6779092819177829	0.893703136635813	1.4637747752009054	0.20600126891472956	0.8650470346533846	1.1632318495374194	0.16802147251120608	0.9274892197567698	0.9132205906127434	0.10099970246850358
118	3.933333333333333	0.9997679392627165	0.908190123918222	0.38204267104981104	0.9873306193751059	0.8968642680463953	0.5051616086998199	0.9359725990899924	0.520960646265022	0.4798068449105685	0.86125686812239	0.10618669991681766	0.44833526175434013	1.0340036473943344	0.03520775992904666	0.4518846842582354	0.9862152464976396	0.02592486651723809	0.5043594888193125	0.8048832928196011	0.03718772733617491	0.4300086337973308	1.005530454721799	0.8924658195020665	0.2686463183544917	1.201137652877941	0.5630066456002066	0.3010281773753547	1.075516933890553	0.1784886614973801	0.33647059801861506	1.2766588102972358	0.07276415905424606	0.34151330722868006	1.247374717331475	0.07025429761748422	0.27260748007648905	1.0103461422440345	0.10852424452465527	0.334445682408074	0.9274030965307161	1.5771987353643055	0.4124507630765703	0.9823722186211047	1.8522177865262308	0.44388811737519757	1.0871499898513426	1.6778765627367502	0.40526360932317534	0.9322584906437681	1.4584645244506704	0.5872745910047245	1.0325654113476348	1.1843239267315462	0.6612165773589961	1.2058783887490307	0.9746741570095439	0.6779092819177829	0.893703136635813	1.4637747752009054	0.20600126891472956	0.8650470346533846	1.1632318495374194	0.16802147251120608	0.9274892197567698	0.9132205906127434	0.10099970246850358
119	3.966666666666667	1.041482136003842	0.9046091327202517	0.4334203528810263	1.0197122747483687	0.8931900536863394	0.5459867667958295	0.9733078632814237	0.5163897385803374	0.4815107495214676	0.8610032010239267	0.10821812563208824	0.442281420609946	1.0623314030570212	0.03766539890658135	0.46101717015988436	1.0043667034251509	0.02802511292005659	0.5198593077937289	0.8017380898816676	0.03683942822454254	0.4243693734647562	1.0577394263286637	0.8939238416788509	0.32213780809201836	1.2759387406748197	0.5540164183956464	0.3657209787760084	1.195218616103624	0.14756362504963283	0.34371764237334174	1.4203452003684216	0.07511617250310852	0.34537313211200477	1.3890447252536335	0.066254888275144	0.31096281604771076	1.1597884180392897	0.08246039912460944	0.35619139348490375	1.0124912769722745	1.57539321374951	0.4751299352046163	1.043860791265777	1.8226579775776384	0.48183225693883547	1.177859942151818	1.6648513773718088	0.4068094356754893	0.9374345339280779	1.4651932662088025	0.5961515038963406	1.1368738814239947	1.1880214556262105	0.6631065136499871	1.34625664282197	1.0025742112863087	0.6668987633992777	0.9879805205535016	1.4620044198688602	0.28924214140672855	0.9386013188512677	1.1545813949448263	0.15875363760856387	0.9798591150987899	0.8908801889833143	0.09487040790322562
120	4.0	1.0939399659324671	0.8968485059750454	0.41232590996909135	1.069759990080609	0.8870253358367988	0.5242811239746692	0.9587536556767879	0.5226506644798817	0.49101478732607945	0.8640429012561326	0.10895433457266324	0.4382303090374187	1.0406760709978933	0.024270343318493856	0.4836399227676522	1.003690781951789	0.029948646284846576	0.5191788039834813	0.8010931646504498	0.0386713378497534	0.4350401642212489	1.1106008723670167	0.8841510129280747	0.30148010038535733	1.3183976198251355	0.5396195428513858	0.33716287638331466	1.3313083679910933	0.138148487513182	0.3157720828622809	1.5605175623453929	0.09534566529139497	0.31796109200242684	1.5220651369407752	0.08207524538074243	0.2807964180797656	1.305606141266515	0.0701280599053591	0.3255236200624956	1.0149887926245276	1.5780269054361564	0.3975268329799348	1.1142102505084137	1.8403022879952657	0.4328795414623438	1.2260258275136404	1.6571834365851286	0.40416932706092934	1.0011708356675417	1.4593228702689924	0.5774452257403896	1.1854509494966288	1.1743077453510524	0.7206822966329574	1.4071193254537477	1.0127312135085904	0.6609870223376786	1.039793531783015	1.4574695077253608	0.26071630310701777	0.9835651691953385	1.1508760829968347	0.18549175479425722	1.0116848083362509	0.8833977018715597	0.08948577659313098
121	4.033333333333333	1.141537831137908	0.8879109112893976	0.4073799990492264	1.115888575059873	0.8675714811070928	0.511740364626977	0.9874231953321602	0.5140826845886949	0.48355428524396227	0.8713789502294638	0.11463632820756745	0.4547499883448296	1.0412096757235911	0.018184487227191005	0.45949037896730394	0.9891993658395621	0.009890726735921018	0.5076373102700857	0.8136322957942941	0.05513459490046703	0.41315035427752417	1.1563367308253292	0.8659198296605574	0.3008579661659273	1.3046160237762014	0.512760111157643	0.29691633406882867	1.4360776719245807	0.13896465699861527	0.3108568853900922	1.6621708754070266	0.111501483708663	0.30166460799552497	1.6250348918208704	0.09514732398436561	0.26021093929634087	1.4210496280715477	0.06100896974475527	0.3167733226312798	1.063688558198605	1.572528194055752	0.3919727949950057	1.1439783569857136	1.8316837923605798	0.41174745480325753	1.2663625435446937	1.6492887441563262	0.4084860855521315	1.0480620158608736	1.4530423939796149	0.5723364695052833	1.1753199514113992	1.1838528272799504	0.6553710730317982	1.464116767418077	1.0231148233172822	0.6512116351924832	1.0822251966184873	1.4500376751740087	0.24791955910160907	1.0266129791859488	1.1397261052591712	0.18312865494757202	1.0405959864548955	0.87586193810079	0.0930886557775929
